<mxfile host="app.diagrams.net" agent="Mozilla/5.0 (X11; Ubuntu; Linux x86_64; rv:132.0) Gecko/20100101 Firefox/132.0" version="24.8.4">
  <diagram name="Page-1" id="BVFgRF2cFPTOR8z7e3it">
    <mxGraphModel dx="2834" dy="1127" grid="1" gridSize="10" guides="1" tooltips="1" connect="1" arrows="1" fold="1" page="1" pageScale="1" pageWidth="850" pageHeight="1100" math="0" shadow="0">
      <root>
        <mxCell id="0" />
        <mxCell id="1" parent="0" />
        <mxCell id="ssqG3kqkzkNDVduMtYJJ-16" value="" style="edgeStyle=orthogonalEdgeStyle;rounded=0;orthogonalLoop=1;jettySize=auto;html=1;" edge="1" parent="1" source="ssqG3kqkzkNDVduMtYJJ-2" target="ssqG3kqkzkNDVduMtYJJ-6">
          <mxGeometry relative="1" as="geometry" />
        </mxCell>
        <mxCell id="ssqG3kqkzkNDVduMtYJJ-38" value="create_federation()" style="edgeLabel;html=1;align=center;verticalAlign=middle;resizable=0;points=[];fontStyle=1;labelBackgroundColor=#CCCCCC;" vertex="1" connectable="0" parent="ssqG3kqkzkNDVduMtYJJ-16">
          <mxGeometry x="0.2714" relative="1" as="geometry">
            <mxPoint as="offset" />
          </mxGeometry>
        </mxCell>
        <mxCell id="ssqG3kqkzkNDVduMtYJJ-2" value="&lt;div&gt;&lt;b&gt;University A&lt;br&gt;&lt;/b&gt;&lt;/div&gt;" style="image;points=[];aspect=fixed;html=1;align=center;shadow=0;dashed=0;image=img/lib/allied_telesis/buildings/Building_Cluster.svg;" vertex="1" parent="1">
          <mxGeometry x="338.8" width="121.2" height="111" as="geometry" />
        </mxCell>
        <mxCell id="ssqG3kqkzkNDVduMtYJJ-48" style="edgeStyle=orthogonalEdgeStyle;rounded=0;orthogonalLoop=1;jettySize=auto;html=1;" edge="1" parent="1" source="ssqG3kqkzkNDVduMtYJJ-6" target="ssqG3kqkzkNDVduMtYJJ-46">
          <mxGeometry relative="1" as="geometry" />
        </mxCell>
        <mxCell id="ssqG3kqkzkNDVduMtYJJ-49" style="edgeStyle=orthogonalEdgeStyle;rounded=0;orthogonalLoop=1;jettySize=auto;html=1;exitX=0.5;exitY=1;exitDx=0;exitDy=0;" edge="1" parent="1" source="ssqG3kqkzkNDVduMtYJJ-6" target="ssqG3kqkzkNDVduMtYJJ-9">
          <mxGeometry relative="1" as="geometry" />
        </mxCell>
        <mxCell id="ssqG3kqkzkNDVduMtYJJ-54" value="&lt;b&gt;create_accreditation()&lt;/b&gt;" style="edgeLabel;html=1;align=center;verticalAlign=middle;resizable=0;points=[];labelBackgroundColor=#CCCCCC;" vertex="1" connectable="0" parent="ssqG3kqkzkNDVduMtYJJ-49">
          <mxGeometry x="-0.8437" y="-1" relative="1" as="geometry">
            <mxPoint as="offset" />
          </mxGeometry>
        </mxCell>
        <mxCell id="ssqG3kqkzkNDVduMtYJJ-6" value="&lt;h3&gt;Federation&lt;/h3&gt;&lt;div&gt;&lt;br&gt;&lt;/div&gt;&lt;div align=&quot;left&quot;&gt;&lt;font color=&quot;#4d9900&quot;&gt;&lt;b&gt;university.a.score.faculty = *&lt;br&gt;&lt;/b&gt;&lt;/font&gt;&lt;/div&gt;&lt;div align=&quot;left&quot;&gt;&lt;font color=&quot;#4d9900&quot;&gt;&lt;b&gt;university.a.score.class = *&lt;br&gt;&lt;/b&gt;&lt;/font&gt;&lt;/div&gt;&lt;div align=&quot;left&quot;&gt;&lt;font color=&quot;#4d9900&quot;&gt;&lt;b&gt;university.a.score.value = *&lt;/b&gt;&lt;b&gt;&lt;br&gt;&lt;/b&gt;&lt;/font&gt;&lt;/div&gt;" style="rounded=0;whiteSpace=wrap;html=1;fillColor=#eeeeee;strokeColor=#36393d;" vertex="1" parent="1">
          <mxGeometry x="270" y="190" width="260" height="140" as="geometry" />
        </mxCell>
        <mxCell id="ssqG3kqkzkNDVduMtYJJ-10" value="Professor B" style="image;sketch=0;aspect=fixed;html=1;points=[];align=center;fontSize=12;image=img/lib/mscae/Person.svg;fontStyle=1" vertex="1" parent="1">
          <mxGeometry x="-210" y="700" width="37" height="50" as="geometry" />
        </mxCell>
        <mxCell id="ssqG3kqkzkNDVduMtYJJ-12" value="&lt;h3&gt;Attestation&lt;font color=&quot;#4d9900&quot;&gt;&lt;br&gt;&lt;/font&gt;&lt;/h3&gt;&lt;div align=&quot;left&quot;&gt;&lt;font color=&quot;#4d9900&quot;&gt;&lt;b&gt;university.a.score.department = [ &quot;&lt;/b&gt;&lt;/font&gt;&lt;font color=&quot;#ea6b66&quot;&gt;&lt;b&gt;physics&lt;/b&gt;&lt;/font&gt;&lt;font color=&quot;#4d9900&quot;&gt;&lt;b&gt;&quot;] &lt;br&gt;&lt;/b&gt;&lt;/font&gt;&lt;/div&gt;&lt;div align=&quot;left&quot;&gt;&lt;font color=&quot;#4d9900&quot;&gt;&lt;b&gt;university.a.score.class = [&quot;&lt;/b&gt;&lt;/font&gt;&lt;font color=&quot;#ea6b66&quot;&gt;&lt;b&gt;quantum field theory&lt;/b&gt;&lt;/font&gt;&lt;font color=&quot;#4d9900&quot;&gt;&lt;b&gt;&quot;]&lt;br&gt;&lt;/b&gt;&lt;/font&gt;&lt;/div&gt;&lt;div align=&quot;left&quot;&gt;&lt;font color=&quot;#4d9900&quot;&gt;&lt;b&gt;university.a.score.value = [2; 5]&lt;/b&gt;&lt;b&gt;&lt;br&gt;&lt;/b&gt;&lt;/font&gt;&lt;/div&gt;" style="rounded=0;whiteSpace=wrap;html=1;fillColor=#eeeeee;strokeColor=#36393d;" vertex="1" parent="1">
          <mxGeometry x="-150" y="670" width="320" height="130" as="geometry" />
        </mxCell>
        <mxCell id="ssqG3kqkzkNDVduMtYJJ-19" value="&lt;b&gt;Professor D&lt;br&gt;&lt;/b&gt;" style="image;sketch=0;aspect=fixed;html=1;points=[];align=center;fontSize=12;image=img/lib/mscae/Person.svg;" vertex="1" parent="1">
          <mxGeometry x="733" y="690" width="37" height="50" as="geometry" />
        </mxCell>
        <mxCell id="ssqG3kqkzkNDVduMtYJJ-20" value="&lt;h3&gt;Attestation&lt;br&gt;&lt;/h3&gt;&lt;div align=&quot;left&quot;&gt;&lt;font color=&quot;#4d9900&quot;&gt;&lt;b&gt;university.a.score.department = [ &quot;&lt;/b&gt;&lt;/font&gt;&lt;font color=&quot;#ea6b66&quot;&gt;&lt;b&gt;biology&lt;/b&gt;&lt;/font&gt;&lt;font color=&quot;#4d9900&quot;&gt;&lt;b&gt;&quot;] &lt;br&gt;&lt;/b&gt;&lt;/font&gt;&lt;/div&gt;&lt;div align=&quot;left&quot;&gt;&lt;font color=&quot;#4d9900&quot;&gt;&lt;b&gt;university.a.score.class = [&quot;&lt;/b&gt;&lt;/font&gt;&lt;font color=&quot;#ea6b66&quot;&gt;&lt;b&gt;genetics&lt;/b&gt;&lt;/font&gt;&lt;font color=&quot;#4d9900&quot;&gt;&lt;b&gt;&quot;]&lt;br&gt;&lt;/b&gt;&lt;/font&gt;&lt;/div&gt;&lt;div align=&quot;left&quot;&gt;&lt;font color=&quot;#4d9900&quot;&gt;&lt;b&gt;university.a.score.value = [2; 5]&lt;/b&gt;&lt;b&gt;&lt;br&gt;&lt;/b&gt;&lt;/font&gt;&lt;/div&gt;" style="rounded=0;whiteSpace=wrap;html=1;fillColor=#eeeeee;strokeColor=#36393d;" vertex="1" parent="1">
          <mxGeometry x="800" y="670" width="289.4" height="130" as="geometry" />
        </mxCell>
        <mxCell id="ssqG3kqkzkNDVduMtYJJ-27" value="&lt;b&gt;Professor C&lt;br&gt;&lt;/b&gt;" style="image;sketch=0;aspect=fixed;html=1;points=[];align=center;fontSize=12;image=img/lib/mscae/Person.svg;" vertex="1" parent="1">
          <mxGeometry x="310" y="690" width="37" height="50" as="geometry" />
        </mxCell>
        <mxCell id="ssqG3kqkzkNDVduMtYJJ-28" value="&lt;h3&gt;Attestation&lt;br&gt;&lt;/h3&gt;&lt;div align=&quot;left&quot;&gt;&lt;font color=&quot;#4d9900&quot;&gt;&lt;b&gt;university.a.score.department = [ &quot;&lt;/b&gt;&lt;/font&gt;&lt;font color=&quot;#ea6b66&quot;&gt;&lt;b&gt;bi&lt;/b&gt;&lt;b&gt;ology&lt;/b&gt;&lt;/font&gt;&lt;font color=&quot;#4d9900&quot;&gt;&lt;b&gt;&quot;] &lt;br&gt;&lt;/b&gt;&lt;/font&gt;&lt;/div&gt;&lt;div align=&quot;left&quot;&gt;&lt;font color=&quot;#4d9900&quot;&gt;&lt;b&gt;university.a.score.class = [&quot;&lt;/b&gt;&lt;/font&gt;&lt;font color=&quot;#ea6b66&quot;&gt;&lt;b&gt;cell biology&lt;/b&gt;&lt;/font&gt;&lt;font color=&quot;#4d9900&quot;&gt;&lt;b&gt;&quot;]&lt;br&gt;&lt;/b&gt;&lt;/font&gt;&lt;/div&gt;&lt;div align=&quot;left&quot;&gt;&lt;font color=&quot;#4d9900&quot;&gt;&lt;b&gt;university.a.score.value = [2; 5]&lt;/b&gt;&lt;b&gt;&lt;br&gt;&lt;/b&gt;&lt;/font&gt;&lt;/div&gt;" style="rounded=0;whiteSpace=wrap;html=1;fillColor=#eeeeee;strokeColor=#36393d;" vertex="1" parent="1">
          <mxGeometry x="370" y="670" width="289.4" height="130" as="geometry" />
        </mxCell>
        <mxCell id="ssqG3kqkzkNDVduMtYJJ-43" value="" style="group" vertex="1" connectable="0" parent="1">
          <mxGeometry x="360" y="440" width="410" height="130" as="geometry" />
        </mxCell>
        <mxCell id="ssqG3kqkzkNDVduMtYJJ-8" value="&lt;b&gt;Department of Biology&lt;br&gt;&lt;/b&gt;" style="image;points=[];aspect=fixed;html=1;align=center;shadow=0;dashed=0;image=img/lib/allied_telesis/buildings/Building_Cluster.svg;" vertex="1" parent="ssqG3kqkzkNDVduMtYJJ-43">
          <mxGeometry y="9.5" width="121.2" height="111" as="geometry" />
        </mxCell>
        <mxCell id="ssqG3kqkzkNDVduMtYJJ-9" value="&lt;h3&gt;Accreditation&lt;br&gt;&lt;/h3&gt;&lt;div align=&quot;left&quot;&gt;&lt;font color=&quot;#4d9900&quot;&gt;&lt;b&gt;university.a.score.department = [ &quot;&lt;/b&gt;&lt;/font&gt;&lt;font color=&quot;#ea6b66&quot;&gt;&lt;b&gt;biology&lt;/b&gt;&lt;/font&gt;&lt;font color=&quot;#4d9900&quot;&gt;&lt;b&gt;&quot;] &lt;br&gt;&lt;/b&gt;&lt;/font&gt;&lt;/div&gt;&lt;div align=&quot;left&quot;&gt;&lt;font color=&quot;#4d9900&quot;&gt;&lt;b&gt;university.a.score.class = *&lt;br&gt;&lt;/b&gt;&lt;/font&gt;&lt;/div&gt;&lt;div align=&quot;left&quot;&gt;&lt;font color=&quot;#4d9900&quot;&gt;&lt;b&gt;university.a.score.value = [2; 5]&lt;/b&gt;&lt;b&gt;&lt;br&gt;&lt;/b&gt;&lt;/font&gt;&lt;/div&gt;" style="rounded=0;whiteSpace=wrap;html=1;fillColor=#eeeeee;strokeColor=#36393d;" vertex="1" parent="ssqG3kqkzkNDVduMtYJJ-43">
          <mxGeometry x="140" width="270" height="130" as="geometry" />
        </mxCell>
        <mxCell id="ssqG3kqkzkNDVduMtYJJ-44" value="" style="group" vertex="1" connectable="0" parent="1">
          <mxGeometry x="-120" y="440" width="410" height="130" as="geometry" />
        </mxCell>
        <mxCell id="ssqG3kqkzkNDVduMtYJJ-45" value="&lt;b&gt;Department of Physics&lt;/b&gt;" style="image;points=[];aspect=fixed;html=1;align=center;shadow=0;dashed=0;image=img/lib/allied_telesis/buildings/Building_Cluster.svg;" vertex="1" parent="ssqG3kqkzkNDVduMtYJJ-44">
          <mxGeometry y="9.5" width="121.2" height="111" as="geometry" />
        </mxCell>
        <mxCell id="ssqG3kqkzkNDVduMtYJJ-46" value="&lt;h3&gt;Accreditation&lt;br&gt;&lt;/h3&gt;&lt;div align=&quot;left&quot;&gt;&lt;font color=&quot;#4d9900&quot;&gt;&lt;b&gt;university.a.score.department = [ &quot;&lt;/b&gt;&lt;/font&gt;&lt;font color=&quot;#ea6b66&quot;&gt;&lt;b&gt;physics&lt;/b&gt;&lt;/font&gt;&lt;font color=&quot;#4d9900&quot;&gt;&lt;b&gt;&quot;] &lt;br&gt;&lt;/b&gt;&lt;/font&gt;&lt;/div&gt;&lt;div align=&quot;left&quot;&gt;&lt;font color=&quot;#4d9900&quot;&gt;&lt;b&gt;university.a.score.class = *&lt;br&gt;&lt;/b&gt;&lt;/font&gt;&lt;/div&gt;&lt;div align=&quot;left&quot;&gt;&lt;font color=&quot;#4d9900&quot;&gt;&lt;b&gt;university.a.score.value = [2; 5]&lt;/b&gt;&lt;b&gt;&lt;br&gt;&lt;/b&gt;&lt;/font&gt;&lt;/div&gt;" style="rounded=0;whiteSpace=wrap;html=1;fillColor=#eeeeee;strokeColor=#36393d;" vertex="1" parent="ssqG3kqkzkNDVduMtYJJ-44">
          <mxGeometry x="140" width="270" height="130" as="geometry" />
        </mxCell>
        <mxCell id="ssqG3kqkzkNDVduMtYJJ-50" style="edgeStyle=orthogonalEdgeStyle;rounded=0;orthogonalLoop=1;jettySize=auto;html=1;entryX=0.5;entryY=0;entryDx=0;entryDy=0;" edge="1" parent="1" source="ssqG3kqkzkNDVduMtYJJ-46" target="ssqG3kqkzkNDVduMtYJJ-12">
          <mxGeometry relative="1" as="geometry" />
        </mxCell>
        <mxCell id="ssqG3kqkzkNDVduMtYJJ-57" value="&lt;b&gt;create_attestation()&lt;/b&gt;" style="edgeLabel;html=1;align=center;verticalAlign=middle;resizable=0;points=[];labelBackgroundColor=#CCCCCC;" vertex="1" connectable="0" parent="ssqG3kqkzkNDVduMtYJJ-50">
          <mxGeometry x="-0.8002" relative="1" as="geometry">
            <mxPoint as="offset" />
          </mxGeometry>
        </mxCell>
        <mxCell id="ssqG3kqkzkNDVduMtYJJ-53" style="edgeStyle=orthogonalEdgeStyle;rounded=0;orthogonalLoop=1;jettySize=auto;html=1;" edge="1" parent="1" source="ssqG3kqkzkNDVduMtYJJ-9" target="ssqG3kqkzkNDVduMtYJJ-28">
          <mxGeometry relative="1" as="geometry" />
        </mxCell>
        <mxCell id="ssqG3kqkzkNDVduMtYJJ-56" value="&lt;b&gt;create_attestation()&lt;/b&gt;" style="edgeLabel;html=1;align=center;verticalAlign=middle;resizable=0;points=[];labelBackgroundColor=#CCCCCC;" vertex="1" connectable="0" parent="ssqG3kqkzkNDVduMtYJJ-53">
          <mxGeometry x="-0.8268" y="-2" relative="1" as="geometry">
            <mxPoint as="offset" />
          </mxGeometry>
        </mxCell>
        <mxCell id="ssqG3kqkzkNDVduMtYJJ-59" style="edgeStyle=orthogonalEdgeStyle;rounded=0;orthogonalLoop=1;jettySize=auto;html=1;exitX=0.5;exitY=1;exitDx=0;exitDy=0;entryX=0.5;entryY=0;entryDx=0;entryDy=0;" edge="1" parent="1" source="ssqG3kqkzkNDVduMtYJJ-9" target="ssqG3kqkzkNDVduMtYJJ-20">
          <mxGeometry relative="1" as="geometry" />
        </mxCell>
      </root>
    </mxGraphModel>
  </diagram>
</mxfile>
